<?xml version="1.0" encoding="utf-8"?>
<!-- Generator: Adobe Illustrator 19.2.1, SVG Export Plug-In . SVG Version: 6.00 Build 0)  -->
<svg version="1.1" id="layer" xmlns="http://www.w3.org/2000/svg" xmlns:xlink="http://www.w3.org/1999/xlink" x="0px" y="0px"
	 viewBox="0 0 652 652" style="enable-background:new 0 0 652 652;" xml:space="preserve">
<style type="text/css">
	.st0{fill:#00B451;}
	.st1{fill:#333333;}
</style>
<path class="st0" d="M139.7,350.3c-7.8,0-11.2-3.7-13.5-7.1l-1.4-2.1c-2.3-3.7-4.7-6.1-11.3-6.1H96.8l5.9-9.1c1.7-2.6,5.2-7,13.5-7
	h19.4c1.7,0,5.1-1.3,5.1-4.9c0-3.8-3.4-5-5.1-5h-25.4c-8.8,0-12.1,5-13.5,7.1l-17.7,27.1c-2.9,4.6-7.2,7.2-12.6,7.2
	s-9.6-2.9-12.5-7.2l-32.8-50.4h13.4c6.7,0,10.8,2.9,13.6,7.1L66.5,328l18.3-28.2c2.2-3.6,6.1-7.1,13.6-7.1h40.1
	c11.7-0.1,21.2,9.3,21.3,21c0,0,0,0.1,0,0.1c0.1,9.6-6.3,18-15.5,20.5l-0.8,0.2l10.3,15.8L139.7,350.3z"/>
<path class="st1" d="M468.9,324.3c0.1,7.8,6.6,14,14.4,13.9h22.2c7.8,0.1,14.2-6.1,14.4-13.9v-30.6h13.1v30.5
	c0,15-12.4,26.9-27.4,27h-22.2c-15,0-27.4-11.9-27.4-27v-30.5h13.1L468.9,324.3L468.9,324.3z M355.7,313.9
	c0-11.7-9.5-21.2-21.2-21.2h-40.3c-4.9,0-9.7,1.9-13.2,5.3c-3.5,3.5-5.5,8.2-5.5,13.1v39.1h13.1v-39.1c0-3,2.4-5.3,5.7-5.3h40.3
	c4.5,0,8.1,3.6,8.1,8.1s-3.6,8.1-8.1,8.1h-23.7c-6.7,0-9.6,3.6-10.9,5.7l-4.8,7.3h31.4l5.9,9c3.7,5.7,8.4,6.1,10.9,6.2h8.9
	l-10.7-16.4C350,330.9,355.7,322.9,355.7,313.9 M561.8,291.7c-4.9,0-9.7,1.9-13.2,5.3c-3.5,3.5-5.5,8.2-5.5,13.1v40.2h13v-40.2
	c0-3,2.4-5.3,5.7-5.3H600c4.5,0,8.1,3.6,8.1,8.1c0,4.5-3.6,8.1-8.1,8.1h-21.6c-6.7,0-9.6,3.6-10.9,5.7l-4.8,7.4H600
	c11.7,0,21.2-9.5,21.2-21.2c0-11.7-9.5-21.2-21.2-21.2L561.8,291.7z M433.8,324.8c-0.1,7.8-6.6,14-14.4,13.9h-28.8
	c-7.8,0.1-14.2-6.1-14.4-13.9v-7.2c0.1-7.8,6.6-14,14.4-13.9h28.8c8,0,14.3,6.3,14.4,13.9V324.8z M446.9,317.7v-0.2
	c0-15-12.4-26.9-27.4-26.9h-28.8c-15,0-27.4,11.9-27.4,27v7.2c0,15,12.4,26.9,27.4,27h28.8c15,0,27.4-11.9,27.4-27v-0.2L446.9,317.7
	z M212.8,350.3c-7,0-13.7-2.6-18.8-7.3c-5.1-4.7-8-11.2-8.1-18.1v-5.7c0-6.9,3-13.5,8.1-18.1c5.1-4.7,11.9-7.3,18.8-7.3h47.6v12.8
	h-47.6c-3.7,0-7.4,1.3-10.2,3.9c-2.5,2.2-3.9,5.4-4,8.8v5.7c0,3.3,1.5,6.5,4,8.8c2.8,2.5,6.4,3.9,10.2,3.9h33c1.5,0,2.9-0.6,4-1.6
	c0.9-0.8,1.4-1.9,1.4-3.1v-2.5h-25.3v-11.8H264v14.3c0,4.8-2,9.3-5.5,12.5c-3.5,3.2-8,5-12.8,4.9L212.8,350.3L212.8,350.3z"/>
</svg>
